<?xml version="1.0" encoding="iso-8859-1"?>
<!-- Generator: Adobe Illustrator 19.0.0, SVG Export Plug-In . SVG Version: 6.00 Build 0)  -->
<svg version="1.1" id="Capa_1" xmlns="http://www.w3.org/2000/svg" xmlns:xlink="http://www.w3.org/1999/xlink" x="0px" y="0px"
	 viewBox="0 0 384.043 384.043" style="enable-background:new 0 0 384.043 384.043;" xml:space="preserve">
<g>
	<g>
		<path d="M374.563,9.411c-0.009-0.008-0.017-0.017-0.026-0.025C362.048-3.119,341.787-3.13,329.283,9.36
			c-0.008,0.008-0.017,0.017-0.025,0.025l-137.28,137.28L54.538,9.385C41.114-2.11,20.913-0.548,9.418,12.876
			c-10.259,11.98-10.259,29.649,0,41.629l137.28,137.44L9.418,329.385c-12.504,12.504-12.504,32.776,0,45.28s32.776,12.504,45.28,0
			l320-320C387.157,42.131,387.097,21.87,374.563,9.411z"/>
	</g>
</g>
<g>
	<g>
		<path d="M374.538,329.385l-96-96c-12.504-12.504-32.776-12.504-45.28,0s-12.504,32.776,0,45.28l96,96
			c12.504,12.504,32.776,12.504,45.28,0S387.041,341.889,374.538,329.385z"/>
	</g>
</g>
<g>
</g>
<g>
</g>
<g>
</g>
<g>
</g>
<g>
</g>
<g>
</g>
<g>
</g>
<g>
</g>
<g>
</g>
<g>
</g>
<g>
</g>
<g>
</g>
<g>
</g>
<g>
</g>
<g>
</g>
</svg>
